<?xml version="1.0" encoding="UTF-8"?>
<svg width="16px" height="16px" viewBox="0 0 16 16" version="1.1" xmlns="http://www.w3.org/2000/svg" xmlns:xlink="http://www.w3.org/1999/xlink">
    <!-- Generator: Sketch 55.1 (78136) - https://sketchapp.com -->
    <title>Rank-Cloudera-Employee</title>
    <desc>Created with Sketch.</desc>
    <g id="Rank-Cloudera-Employee" stroke="none" stroke-width="1" fill="none" fill-rule="evenodd">
        <g id="c-logo-small">
            <g>
                <path d="M16,8 C16,12.4182069 12.4182069,16 8,16 C3.5817931,16 0,12.4182069 0,8 C0,3.5817931 3.5817931,0 8,0 C12.4182069,0 16,3.5817931 16,8" id="Fill-1-Copy" fill="#FFFFFF"></path>
                <path d="M16,8 C16,12.4182069 12.4182069,16 8,16 C3.5817931,16 0,12.4182069 0,8 C0,3.5817931 3.5817931,0 8,0 C12.4182069,0 16,3.5817931 16,8 Z M8.23222069,11.1632552 C6.48711724,11.1632552 5.19884138,9.78615172 5.19884138,7.98256552 C5.19884138,6.18008276 6.48711724,4.80684138 8.23222069,4.80684138 C9.09566897,4.80684138 9.81622069,5.14394483 10.3243586,5.70284138 L11.8918069,4.1353931 C10.955531,3.20353103 9.65732414,2.65070345 8.18311724,2.65070345 C5.11332414,2.65070345 2.74697931,4.99332414 2.74697931,7.98366897 C2.74697931,10.9745655 5.11332414,13.3171862 8.18311724,13.3171862 C9.6953931,13.3171862 11.0393931,12.719669 11.9900138,11.7171862 L10.4220138,10.1497379 C9.91056552,10.7770483 9.1536,11.1632552 8.23222069,11.1632552 Z" fill="#F96702"></path>
            </g>
        </g>
    </g>
</svg>